<?xml version="1.0" standalone="no"?>
<!DOCTYPE svg PUBLIC "-//W3C//DTD SVG 20010904//EN"
 "http://www.w3.org/TR/2001/REC-SVG-20010904/DTD/svg10.dtd">
<svg version="1.0" xmlns="http://www.w3.org/2000/svg"
 width="1024.000000pt" height="1024.000000pt" viewBox="0 0 1024.000000 1024.000000"
 preserveAspectRatio="xMidYMid meet">

<g transform="translate(0.000000,1024.000000) scale(0.100000,-0.100000)"
fill="#000000" stroke="none">
<path d="M2506 6834 c-81 -29 -168 -130 -165 -190 1 -10 6 -2 11 18 14 52 79
122 142 153 l54 26 334 -3 334 -3 51 -33 c52 -33 84 -75 109 -142 7 -19 13
-27 13 -17 3 57 -70 149 -144 183 -49 23 -55 24 -375 23 -255 0 -333 -3 -364
-15z"/>
<path d="M2603 6679 c-83 -17 -102 -51 -105 -197 -2 -61 1 -114 5 -119 5 -4
169 -8 365 -8 l357 0 3 105 c4 139 -1 164 -42 195 l-34 26 -261 2 c-143 1
-273 -1 -288 -4z m583 -43 l34 -34 0 -116 0 -116 -355 0 -355 0 0 116 0 116
34 34 34 34 287 0 287 0 34 -34z"/>
<path d="M2330 6499 l0 -127 -157 -4 c-133 -4 -167 -8 -215 -27 -75 -29 -149
-100 -185 -176 l-28 -60 0 -860 0 -860 29 -63 c54 -117 170 -192 296 -192 l60
0 0 -52 c0 -63 27 -126 65 -156 36 -28 98 -45 138 -37 47 10 104 50 123 87 21
41 32 148 14 148 -9 0 -11 -12 -7 -40 8 -61 -8 -105 -54 -144 -53 -45 -103
-54 -161 -28 -75 34 -108 91 -108 190 l0 42 -65 0 c-115 0 -233 71 -285 171
-39 74 -41 135 -38 979 l3 815 28 55 c31 62 56 93 110 133 66 50 108 59 282
61 l160 2 6 119 c3 66 2 127 -3 135 -4 8 -8 -42 -8 -111z"/>
<path d="M3392 6493 l-2 -133 28 -1 c15 -1 86 -2 157 -3 72 -1 144 -5 160 -9
29 -7 29 -7 5 4 -15 7 -91 14 -182 17 l-157 4 -4 127 -3 126 -2 -132z"/>
<path d="M5694 6411 c-51 -22 -71 -105 -38 -156 19 -29 74 -49 113 -40 74 16
104 117 50 171 -28 28 -89 40 -125 25z"/>
<path d="M4470 6280 l0 -90 130 0 130 0 0 -380 0 -380 95 0 95 0 0 380 0 380
125 0 125 0 0 90 0 90 -350 0 -350 0 0 -90z"/>
<path d="M3818 6305 c28 -20 70 -58 92 -86 48 -61 53 -52 6 12 -32 43 -117
109 -140 109 -6 0 13 -16 42 -35z"/>
<path d="M3958 6140 c9 -32 9 -1745 0 -1785 -7 -29 -7 -29 8 3 22 50 21 1726
-1 1775 -9 19 -12 22 -7 7z"/>
<path d="M5445 6115 c-16 -8 -47 -34 -67 -58 l-38 -42 0 48 0 47 -80 0 -80 0
0 -340 0 -340 84 0 85 0 3 203 c2 169 6 207 20 234 26 47 70 74 133 80 l56 6
-3 86 -3 86 -40 3 c-22 1 -53 -5 -70 -13z"/>
<path d="M6265 6114 c-22 -8 -57 -28 -77 -45 l-38 -30 0 36 0 35 -80 0 -80 0
0 -470 0 -470 85 0 85 0 0 160 0 160 40 -29 c78 -56 204 -65 297 -20 66 32
126 106 153 188 32 100 26 240 -13 326 -36 78 -88 130 -154 155 -64 24 -159
25 -218 4z m118 -158 c96 -41 137 -182 85 -286 -31 -61 -77 -90 -143 -90 -99
0 -165 74 -165 187 0 73 11 107 48 147 50 53 114 68 175 42z"/>
<path d="M5660 5770 l0 -340 85 0 85 0 0 340 0 340 -85 0 -85 0 0 -340z"/>
<path d="M2775 5964 c-98 -15 -219 -71 -290 -133 -87 -76 -183 -225 -201 -313
-43 -208 25 -429 225 -733 52 -79 50 -76 122 -165 64 -78 151 -166 200 -203
l36 -27 28 24 c16 14 33 23 37 20 5 -3 7 -2 6 3 -5 14 154 183 165 176 6 -3 7
-1 3 6 -4 6 8 30 27 54 96 118 203 300 259 442 55 139 61 172 56 292 -5 96 -9
117 -42 193 -69 158 -208 287 -364 339 -63 20 -208 34 -267 25z m266 -38 c98
-34 155 -70 229 -145 69 -70 126 -168 151 -256 22 -80 18 -236 -10 -325 -70
-227 -261 -521 -478 -733 l-70 -68 -81 76 c-155 146 -293 336 -392 540 -79
161 -104 253 -104 375 0 155 53 278 169 395 157 158 381 212 586 141z"/>
<path d="M2765 5621 c-56 -25 -101 -66 -133 -120 -23 -40 -27 -57 -27 -126 0
-63 5 -89 22 -121 51 -97 135 -147 243 -147 151 0 262 112 261 263 0 115 -46
191 -144 240 -73 36 -158 41 -222 11z m186 -7 c66 -20 138 -88 157 -150 18
-61 15 -152 -7 -199 -23 -50 -85 -110 -102 -100 -8 5 -10 4 -5 -4 14 -22 -62
-43 -144 -39 -72 3 -80 6 -132 45 -75 56 -103 113 -102 208 1 88 20 131 85
189 72 65 148 80 250 50z"/>
<path d="M4470 5090 l0 -90 130 0 130 0 0 -377 0 -378 95 0 95 0 0 378 0 377
125 0 125 0 0 90 0 90 -350 0 -350 0 0 -90z"/>
<path d="M5851 4929 c-104 -18 -190 -91 -233 -198 -32 -80 -33 -245 -2 -312
31 -67 87 -124 152 -156 52 -26 66 -28 172 -28 106 0 120 2 177 29 35 16 67
34 72 40 6 7 -2 32 -25 72 l-34 61 -60 -30 c-119 -59 -242 -31 -289 66 -12 24
-21 49 -21 55 0 9 59 12 230 12 l230 0 0 68 c0 124 -50 227 -137 282 -40 26
-63 32 -153 44 -14 2 -50 0 -79 -5z m136 -159 c32 -19 58 -57 65 -95 3 -19 -2
-20 -142 -17 -80 2 -146 5 -148 7 -10 9 44 89 71 105 42 26 112 26 154 0z"/>
<path d="M8973 4930 c-125 -26 -215 -121 -249 -264 -45 -191 42 -366 208 -420
107 -34 260 -16 359 43 l37 22 -37 63 -36 64 -40 -24 c-138 -80 -287 -33 -329
103 l-7 23 233 2 233 3 3 40 c8 97 -32 207 -100 272 -63 61 -180 92 -275 73z
m142 -160 c32 -20 65 -72 65 -104 0 -14 -17 -15 -142 -10 -78 3 -145 7 -147
10 -11 11 35 79 68 101 44 30 111 31 156 3z"/>
<path d="M5430 4912 c-19 -11 -46 -36 -60 -57 l-25 -38 -3 47 -3 46 -80 0 -79
0 0 -332 0 -333 82 0 83 0 5 200 c4 167 8 205 23 233 24 43 69 70 134 78 l53
6 0 84 0 84 -48 0 c-27 0 -62 -8 -82 -18z"/>
<path d="M6407 4906 c-37 -12 -72 -27 -77 -32 -7 -7 19 -106 35 -131 1 -2 29
8 63 22 99 40 197 29 234 -27 9 -14 20 -42 24 -63 6 -35 5 -38 -12 -30 -36 14
-209 18 -250 5 -102 -33 -148 -106 -142 -225 6 -125 69 -187 196 -194 90 -4
140 9 187 50 l35 31 0 -33 0 -34 81 0 80 0 -3 255 c-3 241 -4 257 -25 297 -28
52 -83 98 -142 118 -69 23 -201 19 -284 -9z m275 -384 c16 -16 -3 -83 -32
-115 -22 -25 -36 -31 -81 -34 -91 -6 -137 38 -110 105 19 47 63 64 145 58 38
-3 73 -9 78 -14z"/>
<path d="M7095 4907 c-91 -43 -134 -120 -120 -214 10 -72 63 -118 190 -166
105 -40 135 -59 135 -88 0 -34 -13 -49 -51 -59 -45 -12 -130 5 -197 39 l-39
20 -27 -67 c-32 -77 -32 -76 63 -114 80 -32 248 -33 306 -1 82 44 115 98 115
189 0 96 -45 149 -165 194 -140 53 -155 62 -162 88 -5 19 0 30 18 45 32 25
121 18 188 -15 l48 -23 25 72 25 72 -51 22 c-38 16 -76 23 -151 26 -90 4 -105
1 -150 -20z"/>
<path d="M8544 4911 c-17 -10 -43 -34 -57 -52 l-27 -34 0 43 0 42 -83 0 -83 0
1 -331 0 -331 84 0 84 0 1 189 c1 167 3 192 21 228 26 52 73 82 141 90 l54 7
0 84 0 84 -52 0 c-34 0 -64 -7 -84 -19z"/>
<path d="M8083 4913 l-83 -4 0 -187 c0 -211 -8 -252 -55 -299 -28 -28 -40 -33
-83 -33 -61 0 -97 25 -112 78 -5 20 -10 128 -10 240 l0 202 -86 0 -85 0 3
-262 c3 -247 4 -265 25 -303 69 -129 238 -161 358 -69 l45 34 0 -29 0 -30 85
-3 85 -3 0 338 c0 185 -1 336 -2 335 -2 -1 -40 -4 -85 -5z"/>
<path d="M3930 4299 c-27 -49 -92 -108 -146 -129 -30 -13 -52 -25 -50 -28 9
-8 68 20 117 54 44 32 106 110 96 121 -3 2 -11 -5 -17 -18z"/>
<path d="M2858 4133 l392 -3 0 -53 c1 -159 146 -246 271 -162 50 32 70 74 77
152 l5 63 61 2 61 2 -59 3 c-32 2 -62 0 -67 -4 -4 -4 -10 -35 -13 -68 -9 -83
-21 -109 -69 -141 -78 -52 -186 -29 -233 50 -9 16 -19 59 -22 97 l-5 69 -396
-2 -396 -3 393 -2z"/>
</g>
</svg>
